<?xml version="1.0" encoding="utf-8"?>
<!-- Generator: Adobe Illustrator 21.0.2, SVG Export Plug-In . SVG Version: 6.00 Build 0)  -->
<svg version="1.1" id="Layer_1" xmlns="http://www.w3.org/2000/svg" xmlns:xlink="http://www.w3.org/1999/xlink" x="0px" y="0px"
	 viewBox="0 0 774.2 536.2" style="enable-background:new 0 0 774.2 536.2;" xml:space="preserve">
<style type="text/css">
	.st0{fill:#FFFFFF;}
</style>
<path class="st0" d="M278.4,312.2h21.9v86.9h-21.9V312.2z M477.1,337.1c-0.9-0.5-8-4.6-18.4-4.6c-14.2,0-24,9.9-24,23.2
	c0,12.9,9.4,23.2,24,23.2c10.3,0,17.5-4.1,18.4-4.6v23.3c-2.8,0.8-10.2,3.1-20,3.1c-24.7,0-46.3-17-46.3-45c0-25.9,19.6-45,46.3-45
	c10.3,0,17.9,2.5,20,3.1V337.1z M248.3,337.1c-0.9-0.5-7.9-4.6-18.4-4.6c-14.2,0-24,9.9-24,23.2c0,12.9,9.4,23.2,24,23.2
	c10.3,0,17.5-4.1,18.4-4.6v23.3c-2.7,0.8-10.2,3.1-20,3.1c-24.6,0-46.3-17-46.3-45c0-25.9,19.6-45,46.3-45c10.3,0,17.9,2.5,20,3.1
	V337.1z M592,355.6c0,24.9-19.2,45-45.9,45s-45.9-20.1-45.9-45c0-24.8,19.2-45,45.9-45C572.8,310.7,592,330.8,592,355.6z
	 M546.1,332.8c-13,0-22.7,10.2-22.7,22.8s9.7,22.9,22.7,22.9s22.7-10.2,22.7-22.9C568.8,343,559.1,332.8,546.1,332.8z M383.5,332
	c-0.3-0.1-9.6-2.7-17.1-2.7c-8.8,0-13.6,2.9-13.6,7.1c0,5.3,6.4,7.1,10.1,8.3l6,1.9c14.2,4.5,20.7,14.3,20.7,24.9
	c0,21.8-19.2,29.2-36,29.2c-11.7,0-22.6-2.1-23.7-2.4v-20c1.9,0.5,11.1,3.2,20.7,3.2c10.9,0,15.9-3.2,15.9-8.1
	c0-4.4-4.3-6.9-9.8-8.7c-1.3-0.4-3.3-1.1-4.7-1.5c-12.2-3.9-22.4-11-22.4-25.4c0-16.2,12.2-27.2,32.4-27.2c10.7,0,20.7,2.6,21.4,2.8
	V332L383.5,332L383.5,332z M158.8,218.8c0-6-4.9-10.8-10.9-10.8c-6,0-10.9,4.8-10.9,10.8v22.8c0,6,4.9,10.9,10.9,10.9
	s10.9-4.9,10.9-10.9V218.8z M218.6,188.9c0-6-4.9-10.9-10.9-10.9s-10.9,4.9-10.9,10.9v52.7c0,6,4.9,10.9,10.9,10.9
	s10.9-4.9,10.9-10.9V188.9z M278.3,147.9c0-6-4.9-10.8-10.9-10.8s-10.9,4.9-10.9,10.8v115.4c0,6,4.9,10.9,10.9,10.9
	s10.9-4.9,10.9-10.9V147.9z M338.1,188.9c0-6-4.9-10.9-10.9-10.9s-10.9,4.9-10.9,10.9v52.7c0,6,4.9,10.9,10.9,10.9
	s10.9-4.9,10.9-10.9V188.9z M397.9,218.8c0-6-4.9-10.8-10.8-10.8c-6,0-10.9,4.9-10.9,10.8v22.8c0,6,4.9,10.9,10.9,10.9
	c6,0,10.8-4.9,10.8-10.9V218.8z M457.7,188.9c0-6-4.9-10.9-10.9-10.9s-10.9,4.9-10.9,10.9v52.7c0,6,4.9,10.9,10.9,10.9
	s10.9-4.9,10.9-10.9V188.9z M517.5,147.9c0-6-4.9-10.8-10.9-10.8s-10.9,4.9-10.9,10.8v115.4c0,6,4.9,10.9,10.9,10.9
	s10.9-4.9,10.9-10.9V147.9z M577.3,188.9c0-6-4.9-10.9-11-10.9c-6,0-10.9,4.9-10.9,10.9v52.7c0,6,4.9,10.9,10.9,10.9
	c6.1,0,11-4.9,11-10.9V188.9z M637,218.8c0-6-4.9-10.8-10.9-10.8s-10.9,4.9-10.9,10.8v22.8c0,6,4.9,10.9,10.9,10.9
	s10.9-4.9,10.9-10.9V218.8z"/>
</svg>
