<?xml version="1.0" encoding="UTF-8" standalone="no"?>
<svg
   xmlns:dc="http://purl.org/dc/elements/1.1/"
   xmlns:cc="http://creativecommons.org/ns#"
   xmlns:rdf="http://www.w3.org/1999/02/22-rdf-syntax-ns#"
   xmlns:svg="http://www.w3.org/2000/svg"
   xmlns="http://www.w3.org/2000/svg"
   xmlns:sodipodi="http://sodipodi.sourceforge.net/DTD/sodipodi-0.dtd"
   xmlns:inkscape="http://www.inkscape.org/namespaces/inkscape"
   version="1.1"
   id="Layer_1"
   x="0px"
   y="0px"
   viewBox="0 0 509.99999 509.99999"
   xml:space="preserve"
   sodipodi:docname="cisco.svg"
   width="510"
   height="510"
   inkscape:version="1.0.1 (3bc2e813f5, 2020-09-07)"><metadata
   id="metadata90"><rdf:RDF><cc:Work
       rdf:about=""><dc:format>image/svg+xml</dc:format><dc:type
         rdf:resource="http://purl.org/dc/dcmitype/StillImage" /><dc:title></dc:title></cc:Work></rdf:RDF></metadata><defs
   id="defs88" /><sodipodi:namedview
   pagecolor="#ffffff"
   bordercolor="#666666"
   borderopacity="1"
   objecttolerance="10"
   gridtolerance="10"
   guidetolerance="10"
   inkscape:pageopacity="0"
   inkscape:pageshadow="2"
   inkscape:window-width="1940"
   inkscape:window-height="1237"
   id="namedview86"
   showgrid="false"
   fit-margin-top="5"
   fit-margin-left="5"
   fit-margin-right="5"
   fit-margin-bottom="5"
   inkscape:zoom="1.7966933"
   inkscape:cx="254.90001"
   inkscape:cy="247.31561"
   inkscape:window-x="0"
   inkscape:window-y="0"
   inkscape:window-maximized="0"
   inkscape:current-layer="Layer_1" />
<g
   id="g83"
   transform="translate(-132.2,-32.1)">
	<g
   id="g63">
		<g
   id="g61">
			<rect
   x="278.60001"
   y="312.20001"
   width="21.9"
   height="86.900002"
   id="rect51" />
			<path
   d="m 477.3,337.1 c -0.9,-0.5 -8,-4.6 -18.4,-4.6 -14.2,0 -24,9.9 -24,23.2 0,12.9 9.4,23.2 24,23.2 10.3,0 17.5,-4.1 18.4,-4.6 v 23.3 c -2.8,0.8 -10.2,3.1 -20,3.1 -24.7,0 -46.3,-17 -46.3,-45 0,-25.9 19.6,-45 46.3,-45 10.3,0 17.9,2.5 20,3.1 z"
   id="path53" />
			<path
   d="m 248.5,337.1 c -0.9,-0.5 -7.9,-4.6 -18.4,-4.6 -14.2,0 -24,9.9 -24,23.2 0,12.9 9.4,23.2 24,23.2 10.3,0 17.5,-4.1 18.4,-4.6 v 23.3 c -2.7,0.8 -10.2,3.1 -20,3.1 -24.6,0 -46.3,-17 -46.3,-45 0,-25.9 19.6,-45 46.3,-45 10.3,0 17.9,2.5 20,3.1 z"
   id="path55" />
			<path
   d="m 592.2,355.6 c 0,24.9 -19.2,45 -45.9,45 -26.7,0 -45.9,-20.1 -45.9,-45 0,-24.8 19.2,-45 45.9,-45 26.7,0.1 45.9,20.2 45.9,45 z m -45.9,-22.8 c -13,0 -22.7,10.2 -22.7,22.8 0,12.6 9.7,22.9 22.7,22.9 13,0 22.7,-10.2 22.7,-22.9 0,-12.6 -9.7,-22.8 -22.7,-22.8 z"
   id="path57" />
			<path
   d="m 383.7,332 c -0.3,-0.1 -9.6,-2.7 -17.1,-2.7 -8.8,0 -13.6,2.9 -13.6,7.1 0,5.3 6.4,7.1 10.1,8.3 l 6,1.9 c 14.2,4.5 20.7,14.3 20.7,24.9 0,21.8 -19.2,29.2 -36,29.2 -11.7,0 -22.6,-2.1 -23.7,-2.4 v -20 c 1.9,0.5 11.1,3.2 20.7,3.2 10.9,0 15.9,-3.2 15.9,-8.1 0,-4.4 -4.3,-6.9 -9.8,-8.7 -1.3,-0.4 -3.3,-1.1 -4.7,-1.5 -12.2,-3.9 -22.4,-11 -22.4,-25.4 0,-16.2 12.2,-27.2 32.4,-27.2 10.7,0 20.7,2.6 21.4,2.8 V 332 Z"
   id="path59" />
		</g>
	</g>
	<path
   d="m 159,218.8 c 0,-6 -4.9,-10.8 -10.9,-10.8 -6,0 -10.9,4.8 -10.9,10.8 v 22.8 c 0,6 4.9,10.9 10.9,10.9 6,0 10.9,-4.9 10.9,-10.9 z"
   id="path65" />
	<path
   d="m 218.8,188.9 c 0,-6 -4.9,-10.9 -10.9,-10.9 -6,0 -10.9,4.9 -10.9,10.9 v 52.7 c 0,6 4.9,10.9 10.9,10.9 6,0 10.9,-4.9 10.9,-10.9 z"
   id="path67" />
	<path
   d="m 278.5,147.9 c 0,-6 -4.9,-10.8 -10.9,-10.8 -6,0 -10.9,4.9 -10.9,10.8 v 115.4 c 0,6 4.9,10.9 10.9,10.9 6,0 10.9,-4.9 10.9,-10.9 z"
   id="path69" />
	<path
   d="m 338.3,188.9 c 0,-6 -4.9,-10.9 -10.9,-10.9 -6,0 -10.9,4.9 -10.9,10.9 v 52.7 c 0,6 4.9,10.9 10.9,10.9 6,0 10.9,-4.9 10.9,-10.9 z"
   id="path71" />
	<path
   d="m 398.1,218.8 c 0,-6 -4.9,-10.8 -10.8,-10.8 -6,0 -10.9,4.9 -10.9,10.8 v 22.8 c 0,6 4.9,10.9 10.9,10.9 6,0 10.8,-4.9 10.8,-10.9 z"
   id="path73" />
	<path
   d="m 457.9,188.9 c 0,-6 -4.9,-10.9 -10.9,-10.9 -6,0 -10.9,4.9 -10.9,10.9 v 52.7 c 0,6 4.9,10.9 10.9,10.9 6,0 10.9,-4.9 10.9,-10.9 z"
   id="path75" />
	<path
   d="m 517.7,147.9 c 0,-6 -4.9,-10.8 -10.9,-10.8 -6,0 -10.9,4.9 -10.9,10.8 v 115.4 c 0,6 4.9,10.9 10.9,10.9 6,0 10.9,-4.9 10.9,-10.9 z"
   id="path77" />
	<path
   d="m 577.5,188.9 c 0,-6 -4.9,-10.9 -11,-10.9 -6,0 -10.9,4.9 -10.9,10.9 v 52.7 c 0,6 4.9,10.9 10.9,10.9 6.1,0 11,-4.9 11,-10.9 z"
   id="path79" />
	<path
   d="m 637.2,218.8 c 0,-6 -4.9,-10.8 -10.9,-10.8 -6,0 -10.9,4.9 -10.9,10.8 v 22.8 c 0,6 4.9,10.9 10.9,10.9 6,0 10.9,-4.9 10.9,-10.9 z"
   id="path81" />
</g>
</svg>
